<?xml version="1.0" encoding="utf-8"?>
<!-- Generator: Adobe Illustrator 19.2.0, SVG Export Plug-In . SVG Version: 6.00 Build 0)  -->
<svg version="1.0" id="Layer_1" xmlns="http://www.w3.org/2000/svg" xmlns:xlink="http://www.w3.org/1999/xlink" x="0px" y="0px"
	 viewBox="0 0 180 50" enable-background="new 0 0 180 50" xml:space="preserve">
<g>
	<g>
		<g>
			<path fill="#1D1D1B" d="M75.9,13.4v3.1H71v12.8h-3.4V16.5h-4.9v-3.1H75.9z"/>
			<path fill="#1D1D1B" d="M84.9,13.1c5.6,0,8.4,3.9,8.4,8.2c0,4.3-2.8,8.2-8.4,8.2s-8.4-3.9-8.4-8.2C76.5,17.1,79.3,13.1,84.9,13.1
				z M84.9,16.3c-3.3,0-4.9,2.3-4.9,5.1c0,2.8,1.6,5.1,4.9,5.1c3.3,0,4.9-2.3,4.9-5.1C89.8,18.6,88.2,16.3,84.9,16.3z"/>
			<path fill="#1D1D1B" d="M95.8,29.3V13.4h6.5c3.1,0,6.3,1.2,6.3,5.2c0,2.7-1.5,4.1-3.5,4.7l4.7,6H106l-4.3-5.5h-2.5v5.5H95.8z
				 M99.2,20.9h3.3c1.4,0,2.7-0.6,2.7-2.2c0-1.6-1.2-2.2-2.7-2.2h-3.3V20.9z"/>
			<path fill="#1D1D1B" d="M111.8,29.3V13.4h3.2l7.4,10.3c0-0.7-0.1-1.4-0.1-2.2v-8.2h3.4v15.8h-3.2l-7.4-10.3
				c0,0.7,0.1,1.4,0.1,2.2v8.2H111.8z"/>
			<path fill="#1D1D1B" d="M127.4,29.3l6.5-15.8h3.7l6.4,15.8h-3.5l-1.2-3h-7.2l-1.2,3H127.4z M133.1,23.5h5.1l-2.2-5.7
				c-0.1-0.3-0.2-0.6-0.3-1.2c-0.1,0.6-0.2,0.9-0.4,1.2L133.1,23.5z"/>
			<path fill="#1D1D1B" d="M151.7,13.4c5.6,0,8.3,3.3,8.3,7.9c0,4.6-2.7,7.9-8.3,7.9h-5.9V13.4H151.7z M151.7,16.4h-2.5v9.9h2.5
				c3.1,0,4.8-1.7,4.8-4.9C156.5,18.1,154.8,16.4,151.7,16.4z"/>
			<path fill="#1D1D1B" d="M170,13.1c5.6,0,8.4,3.9,8.4,8.2c0,4.3-2.8,8.2-8.4,8.2c-5.6,0-8.4-3.9-8.4-8.2
				C161.6,17.1,164.4,13.1,170,13.1z M170,16.3c-3.3,0-4.9,2.3-4.9,5.1c0,2.8,1.6,5.1,4.9,5.1c3.3,0,4.9-2.3,4.9-5.1
				C175,18.6,173.3,16.3,170,16.3z"/>
			<path fill="#1D1D1B" d="M68.9,34.7c1,0,2,0.2,2.6,0.6v1.3C70.9,36.2,69.9,36,69,36c-1,0-1.7,0.3-1.7,1c0,1.8,4.8,1.1,4.8,4.1
				c0,1.8-1.5,2.4-3.2,2.4c-1.1,0-2.2-0.3-3-0.7v-1.3c0.9,0.6,1.9,0.8,2.9,0.8c1.1,0,1.9-0.3,1.9-1c0-2-4.8-1.2-4.8-4.1
				C66,35.5,67.3,34.7,68.9,34.7z"/>
			<path fill="#1D1D1B" d="M89.3,34.9v1.3h-2.8v7.2h-1.4v-7.2h-2.8v-1.3H89.3z"/>
			<path fill="#1D1D1B" d="M107.4,34.9v5.3c0,2.4-1.7,3.3-3.6,3.3c-1.9,0-3.6-0.8-3.6-3.3v-5.3h1.4v5.2c0,1.5,0.9,2.1,2.2,2.1
				c1.3,0,2.2-0.5,2.2-2.1v-5.2H107.4z"/>
			<path fill="#1D1D1B" d="M122.1,34.9c3,0,4.4,1.8,4.4,4.2s-1.4,4.2-4.4,4.2h-3v-8.4H122.1z M122.1,36.1h-1.6v5.9h1.6
				c2,0,3-1.1,3-3C125.1,37.2,124.1,36.1,122.1,36.1z"/>
			<path fill="#1D1D1B" d="M139.2,34.9v8.4h-1.4v-8.4H139.2z"/>
			<path fill="#1D1D1B" d="M154.9,34.7c3,0,4.4,2.1,4.4,4.4c0,2.2-1.5,4.4-4.4,4.4c-3,0-4.4-2.1-4.4-4.4
				C150.5,36.9,151.9,34.7,154.9,34.7z M154.9,36c-2,0-3,1.5-3,3.1s1,3.1,3,3.1c2,0,3-1.5,3-3.1S157,36,154.9,36z"/>
			<path fill="#1D1D1B" d="M173.1,34.7c1,0,2,0.2,2.6,0.6v1.3c-0.7-0.5-1.6-0.7-2.5-0.7c-1,0-1.7,0.3-1.7,1c0,1.8,4.8,1.1,4.8,4.1
				c0,1.8-1.5,2.4-3.2,2.4c-1.1,0-2.2-0.3-3-0.7v-1.3c0.9,0.6,1.9,0.8,2.9,0.8c1.1,0,1.9-0.3,1.9-1c0-2-4.8-1.2-4.8-4.1
				C170.2,35.5,171.6,34.7,173.1,34.7z"/>
		</g>
	</g>
	<g>
		<path fill="#F29100" d="M12.6,28.4c1.3,0.9,14.1,1.1,20.5-0.5c0.3-1.7,4.6-5.5,7.4-6.9C40.5,21,15.5,13,12.6,28.4z"/>
		<path fill="#F29100" d="M21.2,43.3c1.3,0.9,4.7,0.1,5.6-0.7c0.3-1.7,1.9-4.5,4.7-6l-0.3-4.2C24.9,33,20.7,37.4,21.2,43.3z"/>
		<path fill="#F29100" d="M46.8,6.1c-3-1.3-10.2-2-19.1-1.7l3.3,7.1c9.1-0.2,16-1.9,17.1-3.6c0,0,0,0,0,0c0-0.1,0.1-0.1,0.1-0.2
			c0-0.1,0-0.2,0-0.3C48.2,6.9,47.7,6.4,46.8,6.1z"/>
	</g>
	<path fill="#F8AF00" d="M26.4,1.6c-0.8,0-1.5,0.1-2.3,0.1C11,2.5,0.5,5,0.6,7.4c0,0.1,0,0.2,0.1,0.3C0.8,7.9,1,8.3,1.9,8.8
		c3.2,1.7,11.1,4.4,29.1,2.7L26.4,1.6z"/>
	<g>
		<linearGradient id="SVGID_1_" gradientUnits="userSpaceOnUse" x1="0.7953" y1="15.5905" x2="48.0926" y2="15.5905">
			<stop  offset="0" style="stop-color:#FFEC00"/>
			<stop  offset="7.508320e-02" style="stop-color:#FEE400"/>
			<stop  offset="0.3016" style="stop-color:#FDD100"/>
			<stop  offset="0.5349" style="stop-color:#FCC600"/>
			<stop  offset="0.7834" style="stop-color:#FCC200"/>
			<stop  offset="1" style="stop-color:#F29100"/>
		</linearGradient>
		<path fill="url(#SVGID_1_)" d="M31,11.5c-2.1,0.1-4.3,0.2-6.6,0.2C14,11.7,5.2,10.5,1.9,8.8C1.4,8.5,1,8.2,0.8,7.9c0,0,0,0,0,0
			c0,0,0,0,0,0l0.7,1.2L3.2,12l2.9,5.1l2.7,4.6L9.5,23c4.1,0.3,9.3,0.4,15,0c4.1-0.3,8-0.7,11.3-1.2c1.7-0.3,3.3-0.6,4.7-0.9l0.6-1
			l2.7-4.7L48,8c0,0,0,0,0,0l0-0.1C47,9.6,40.1,11,31,11.5z"/>
		<linearGradient id="SVGID_2_" gradientUnits="userSpaceOnUse" x1="21.1837" y1="45.6096" x2="28.1738" y2="45.6096">
			<stop  offset="0" style="stop-color:#FFEC00"/>
			<stop  offset="7.508320e-02" style="stop-color:#FEE400"/>
			<stop  offset="0.3016" style="stop-color:#FDD100"/>
			<stop  offset="0.5349" style="stop-color:#FCC600"/>
			<stop  offset="0.7834" style="stop-color:#FCC200"/>
			<stop  offset="1" style="stop-color:#F29100"/>
		</linearGradient>
		<path fill="url(#SVGID_2_)" d="M21.2,43.2l3.3,5.6l3.7-6.5c-0.9,0.1-1.9,0.3-2.9,0.4C23.9,42.9,22.5,43.1,21.2,43.2z"/>
		<linearGradient id="SVGID_3_" gradientUnits="userSpaceOnUse" x1="12.6332" y1="32.5567" x2="37.1171" y2="32.5567">
			<stop  offset="0" style="stop-color:#FFEC00"/>
			<stop  offset="7.508320e-02" style="stop-color:#FEE400"/>
			<stop  offset="0.3016" style="stop-color:#FDD100"/>
			<stop  offset="0.5349" style="stop-color:#FCC600"/>
			<stop  offset="0.7834" style="stop-color:#FCC200"/>
			<stop  offset="1" style="stop-color:#F29100"/>
		</linearGradient>
		<path fill="url(#SVGID_3_)" d="M24.9,28.3c-4.5,0.3-8.6,0.3-12.2,0.1l1.3,2.3l2.7,4.7l1.6,2.8c2-0.1,4.1-0.4,6.3-0.6
			c2.4-0.3,4.7-0.6,6.9-1l1.8-3.1l3-5.3l0.8-1.3c-2.7,0.5-5.8,0.9-9,1.1C27,28.1,26,28.2,24.9,28.3z"/>
	</g>
</g>
</svg>
